# xmcd
#
# Track frame offsets:
#	150
#	19675
#	40080
#	60280
#	76520
#	97822
#	112402
#	133760
#	152967
#	171900
#	183322
#	200875
#	215952
#	233380
#	250345
#
# Disc length: 3564 seconds
#
# Revision: 1
# Processed by: cddbd v1.5.1PL0 Copyright (c) Steve Scherf et al.
# Submitted via: CDex 1.50Beta5
#
DISCID=c90dea0f
DTITLE=Various Artist - NEW MUSIC BEST SELECTION 11
DYEAR=1900
DGENRE=New Age
TTITLE0=竹内まりや/不思議なピーチパイ
TTITLE1=竹内まりや/SEPTEMBER
TTITLE2=竹内まりや/戻っておいで私の時間
TTITLE3=桑名正博/哀愁トゥナイト
TTITLE4=桑名正博/セクシャルバイオレットNo.1
TTITLE5=大貫妙子/ピーターラビットとわたし
TTITLE6=大貫妙子/夏に恋する女たち
TTITLE7=EPO/DOWN TOWN
TTITLE8=EPO/土曜の夜はパラダイス
TTITLE9=EPO/PARK Ave.1981
TTITLE10=鈴木一平/水鏡
TTITLE11=惣領智子/終りのない歌
TTITLE12=竹内まりや/リンダ
TTITLE13=竹内まりや/SPECIAL DELIVERY〜特別航空便
TTITLE14=竹内まりや/ドリーム・オブ・ユー〜レモンライムの青い風
EXTD=
EXTT0=
EXTT1=
EXTT2=
EXTT3=
EXTT4=
EXTT5=
EXTT6=
EXTT7=
EXTT8=
EXTT9=
EXTT10=
EXTT11=
EXTT12=
EXTT13=
EXTT14=
PLAYORDER=
